<svg width="203" height="87" viewBox="0 0 293 87" fill="none" xmlns="http://www.w3.org/2000/svg">
<g clip-path="url(#clip0_43_283)">
<path d="M0.333313 43.6667C0.333313 84.0667 0.466646 87 2.73331 87C3.93331 86.8667 10.8666 85.8 17.9333 84.4667C37.4 81 41.6666 76.0667 41.6666 57C41.6666 45.9333 41.5333 45.2667 37.6666 41.4L33.6666 37.4L37 33.4C39.9333 29.9333 40.3333 28.2 40.3333 19.8C40.3333 3.66664 35.9333 0.333313 14.3333 0.333313H0.333313V43.6667ZM25.4 13.9333C26.3333 14.8667 27 18.4667 27 21.9333C27 29.2667 23.8 33.6667 18.3333 33.6667C15 33.6667 15 33.5333 15 23V12.3333H19.4C21.8 12.3333 24.4666 13 25.4 13.9333ZM26.2 47.8C27.6666 49.1333 28.3333 52.3333 28.3333 57.8C28.3333 67 25.5333 71 19 71H15V58.3333V45.6667H19.5333C22.0666 45.6667 25.1333 46.6 26.2 47.8Z" fill="#E50914"/>
<path d="M49.6666 40.4667V80.6L53.6666 79.9333C55.8 79.4 63.8 78.7333 71.6666 78.2L85.6666 77.2667V71.2667V65.2667L74.3333 65.9333L63 66.4667V55.6667V44.7333L68.0666 43.8C70.7333 43.4 75 43 77.4 43C81.5333 43 81.6666 42.7333 81.6666 37.6667V32.3333H72.3333H63V21.6667V11H74.3333H85.6666V5.66668V0.333344H67.6666H49.6666V40.4667Z" fill="#E50914"/>
<path d="M93.6666 38.4667V76.6L108.067 75.6667C133.4 73.9333 134.2 72.8667 134.733 38.3333C135.133 10.3333 134.733 8.46668 127.133 3.40001C123.133 0.733345 121 0.333344 108.2 0.333344H93.6666V38.4667ZM119 12.3333C120.6 13.4 121 17.6667 121 36.8667C121 53 120.467 60.7333 119.4 61.8C118.6 62.6 115.533 63.4 112.733 63.5333L107.667 63.6667L107.267 37.2667L107 11H111.933C114.733 11 117.933 11.6667 119 12.3333Z" fill="#E50914"/>
<path d="M143 37.6667V75H149.667H156.333V59V43H165H173.667V37.6667V32.3333H165H156.333V21.6667V11H167H177.667V5.66665V0.333313H160.333H143V37.6667Z" fill="#E50914"/>
<path d="M184.333 37.6667C184.333 66.4667 184.733 75.2667 186.067 75.5333C186.867 75.9333 194.733 76.4667 203.4 76.8667L219 77.6667V71.8V66.0667L208.333 65.1333L197.667 64.2V32.2V0.333313H191H184.333V37.6667Z" fill="#E50914"/>
<path d="M224.6 39.2667L225 78.3333L232.067 78.7333L239 79.1333V39.8V0.333313H231.667H224.333L224.6 39.2667Z" fill="#E50914"/>
<path d="M246.067 1.93331C246.333 2.86664 249.4 11.5333 252.867 21L259.133 38.4667L251.8 59C247.8 70.3333 244.6 79.8 244.867 79.9333C245 80.2 247.933 80.7333 251.267 81.1333L257.4 81.9333L262.467 66.4667C265.267 57.9333 267.933 51.5333 268.333 52.0667C268.867 52.6 271.267 59.9333 273.667 68.3333C276.067 76.7333 278.467 84.0667 278.867 84.4667C279.267 85 282.467 85.8 286.067 86.2C290.733 87 292.333 86.7333 292.333 85.4C292.333 84.4667 289.267 73.8 285.4 61.8L278.467 39.9333L285.267 20.0667L292.2 0.333313H285.8H279.4L275 12.6C272.733 19.4 270.333 25.8 269.8 26.7333C269.267 27.6667 266.867 22.3333 264.333 14.3333L259.8 0.333313H252.6C247.4 0.333313 245.533 0.733314 246.067 1.93331Z" fill="#E50914"/>
</g>
<defs>
<clipPath id="clip0_43_283">
<rect width="293" height="87" fill="white"/>
</clipPath>
</defs>
</svg>
