<svg width="37" height="41" viewBox="0 0 37 41" fill="none" xmlns="http://www.w3.org/2000/svg">
<path d="M36.3106 20.1609C36.3106 21.5671 35.3838 22.6687 34.3336 22.6687H32.3565L32.3998 35.1843C32.3998 35.3953 32.3874 35.6062 32.3689 35.8171V37.0749C32.3689 38.8015 31.263 40.1999 29.8976 40.1999H28.9091C28.8411 40.1999 28.7732 40.1999 28.7052 40.1921C28.6187 40.1999 28.5322 40.1999 28.4457 40.1999H26.4378H24.9551C23.5897 40.1999 22.4838 38.8015 22.4838 37.0749V35.1999V30.1999C22.4838 28.8171 21.6003 27.6999 20.5068 27.6999H16.5527C15.4592 27.6999 14.5757 28.8171 14.5757 30.1999V35.1999V37.0749C14.5757 38.8015 13.4698 40.1999 12.1044 40.1999H10.6217H8.65083C8.55816 40.1999 8.46548 40.1921 8.37281 40.1843C8.29867 40.1921 8.22454 40.1999 8.1504 40.1999H7.16189C5.79651 40.1999 4.69061 38.8015 4.69061 37.0749V28.3249C4.69061 28.2546 4.69061 28.1765 4.69679 28.1062V22.6687H2.71359C1.60152 22.6687 0.736572 21.5749 0.736572 20.1609C0.736572 19.4578 0.921918 18.8328 1.35439 18.2859L17.1953 0.824951C17.6277 0.278076 18.122 0.199951 18.5545 0.199951C18.9869 0.199951 19.4812 0.356201 19.8519 0.746826L35.631 18.2859C36.1252 18.8328 36.3724 19.4578 36.3106 20.1609Z" fill="#AE121C"/>
</svg>
