<svg width="37" height="41" viewBox="0 0 37 41" fill="none" xmlns="http://www.w3.org/2000/svg">
<path d="M0.856689 5.91424C0.856689 2.76245 2.8513 0.199951 5.30461 0.199951H31.9921C34.4454 0.199951 36.44 2.76245 36.44 5.91424V34.4857C36.44 37.6374 34.4454 40.1999 31.9921 40.1999H5.30461C2.8513 40.1999 0.856689 37.6374 0.856689 34.4857V5.91424ZM4.19263 30.1999V33.0571C4.19263 33.8428 4.69302 34.4857 5.30461 34.4857H7.52857C8.14016 34.4857 8.64055 33.8428 8.64055 33.0571V30.1999C8.64055 29.4142 8.14016 28.7714 7.52857 28.7714H5.30461C4.69302 28.7714 4.19263 29.4142 4.19263 30.1999ZM29.7682 28.7714C29.1566 28.7714 28.6562 29.4142 28.6562 30.1999V33.0571C28.6562 33.8428 29.1566 34.4857 29.7682 34.4857H31.9921C32.6037 34.4857 33.1041 33.8428 33.1041 33.0571V30.1999C33.1041 29.4142 32.6037 28.7714 31.9921 28.7714H29.7682ZM4.19263 18.7714V21.6285C4.19263 22.4142 4.69302 23.0571 5.30461 23.0571H7.52857C8.14016 23.0571 8.64055 22.4142 8.64055 21.6285V18.7714C8.64055 17.9857 8.14016 17.3428 7.52857 17.3428H5.30461C4.69302 17.3428 4.19263 17.9857 4.19263 18.7714ZM29.7682 17.3428C29.1566 17.3428 28.6562 17.9857 28.6562 18.7714V21.6285C28.6562 22.4142 29.1566 23.0571 29.7682 23.0571H31.9921C32.6037 23.0571 33.1041 22.4142 33.1041 21.6285V18.7714C33.1041 17.9857 32.6037 17.3428 31.9921 17.3428H29.7682ZM4.19263 7.34281V10.2C4.19263 10.9857 4.69302 11.6285 5.30461 11.6285H7.52857C8.14016 11.6285 8.64055 10.9857 8.64055 10.2V7.34281C8.64055 6.55709 8.14016 5.91424 7.52857 5.91424H5.30461C4.69302 5.91424 4.19263 6.55709 4.19263 7.34281ZM29.7682 5.91424C29.1566 5.91424 28.6562 6.55709 28.6562 7.34281V10.2C28.6562 10.9857 29.1566 11.6285 29.7682 11.6285H31.9921C32.6037 11.6285 33.1041 10.9857 33.1041 10.2V7.34281C33.1041 6.55709 32.6037 5.91424 31.9921 5.91424H29.7682ZM11.9765 8.77138V14.4857C11.9765 16.066 12.9703 17.3428 14.2004 17.3428H23.0963C24.3264 17.3428 25.3202 16.066 25.3202 14.4857V8.77138C25.3202 7.19102 24.3264 5.91424 23.0963 5.91424H14.2004C12.9703 5.91424 11.9765 7.19102 11.9765 8.77138ZM14.2004 23.0571C12.9703 23.0571 11.9765 24.3339 11.9765 25.9142V31.6285C11.9765 33.2089 12.9703 34.4857 14.2004 34.4857H23.0963C24.3264 34.4857 25.3202 33.2089 25.3202 31.6285V25.9142C25.3202 24.3339 24.3264 23.0571 23.0963 23.0571H14.2004Z" fill="white"/>
</svg>
