<svg width="29" height="32" viewBox="0 0 29 32" fill="none" xmlns="http://www.w3.org/2000/svg">
<path d="M23.3958 13C23.3958 15.8687 22.5674 18.5188 21.1718 20.6688L28.2106 28.5875C28.9056 29.3687 28.9056 30.6375 28.2106 31.4188C27.5157 32.2 26.387 32.2 25.692 31.4188L18.6532 23.5C16.7406 25.075 14.3832 26 11.8312 26C5.44287 26 0.266602 20.1812 0.266602 13C0.266602 5.81875 5.44287 0 11.8312 0C18.2195 0 23.3958 5.81875 23.3958 13ZM11.8312 22C16.2513 22 19.8374 17.9688 19.8374 13C19.8374 8.03125 16.2513 4 11.8312 4C7.41107 4 3.82494 8.03125 3.82494 13C3.82494 17.9688 7.41107 22 11.8312 22Z" fill="white"/>
</svg>
