<svg width="37" height="41" viewBox="0 0 37 41" fill="none" xmlns="http://www.w3.org/2000/svg">
<path d="M31.5788 0.199951H25.5949L25.5254 0.289237L16.6991 11.6285H23.0999L23.1694 11.5392L31.9819 0.226737C31.8498 0.20888 31.7178 0.199951 31.5788 0.199951ZM36.0267 11.6285V5.91424C36.0267 4.56602 35.6584 3.31602 35.0537 2.34281L27.8258 11.6285H36.0267ZM20.8829 0.199951H14.4751L14.4056 0.289237L5.57931 11.6285H11.9801L12.0496 11.5392L20.876 0.199951H20.8829ZM4.89128 0.199951C2.43797 0.199951 0.443359 2.76245 0.443359 5.91424V11.6285H0.867301L0.9368 11.5392L9.76314 0.199951H4.89128ZM36.0267 14.4857H0.443359V34.4857C0.443359 37.6374 2.43797 40.1999 4.89128 40.1999H31.5788C34.0321 40.1999 36.0267 37.6374 36.0267 34.4857V14.4857Z" fill="white"/>
</svg>
